<svg width="511" height="512" viewBox="0 0 511 512" fill="none" xmlns="http://www.w3.org/2000/svg">
<path d="M480.354 132.609C496.214 161.384 506.698 193.538 510.454 227.716C504.997 229.865 498.355 232.531 490.848 235.64C469.465 244.494 441.046 256.953 412.905 271.367C384.77 285.779 356.888 302.158 336.597 318.856C326.452 327.205 318.183 335.65 312.73 343.987C307.278 352.324 304.614 360.595 305.763 368.571C308.03 384.319 316.388 399.601 327.684 413.661C338.982 427.725 353.246 440.6 367.377 451.533C377 458.978 386.568 465.527 395.104 470.943C355.055 496.916 307.289 512 256 512C196.314 512 141.398 491.573 97.8623 457.33C138.204 434.435 181.868 400.535 215.166 351.063C256.158 290.161 272.836 240.592 278.952 205.207C281.027 193.205 281.873 182.901 282.059 174.414C369.707 172.529 434.725 153.627 480.354 132.609ZM36.209 124.668C38.338 125.951 40.5473 127.238 42.8428 128.52C81.0221 149.838 141.87 170.104 237.056 173.935C236.896 180.152 236.251 188.051 234.61 197.543C229.664 226.158 215.592 269.839 177.834 325.937C146.112 373.066 102.815 404.391 63.5156 424.781C23.9732 379.722 0 320.661 0 256C0 207.989 13.216 163.065 36.209 124.668ZM256 0C336.259 0 407.89 36.9344 454.827 94.7324C411.186 113.696 347.024 130.778 258.323 129.502C156.949 128.043 97.7898 107.661 64.7822 89.2305C64.0969 88.8478 63.4234 88.4642 62.7598 88.083C109.694 34.1164 178.863 0 256 0Z" fill="#6574C0"/>
</svg>
